<svg width="414" height="423" viewBox="0 0 414 423" fill="none" xmlns="http://www.w3.org/2000/svg">
<path d="M0 198.824V219.324H78L205 145.824L331.5 219.324H408V198.824L385 183.824V147.824C375.075 146.431 371.763 142.419 368.5 131.324C343.5 64.324 294 25.824 239.5 16.324L235.5 52.324H222.5V1.82399C208.088 -0.642061 200.1 -0.573067 186 1.82399V52.324H174L171 16.324C114 25.324 58 73.324 42 131.324C38.4135 144.325 32.4816 146.769 23 147.824V183.824L0 198.824Z" fill="url(#paint0_linear_367_25)"/>
<path d="M342.835 231H383.065L413.845 420H384.145L378.745 382.47V383.01H344.995L339.595 420H312.055L342.835 231ZM375.235 357.36L362.005 263.94H361.465L348.505 357.36H375.235Z" fill="white"/>
<path d="M256.536 422.7C242.136 422.7 231.156 418.65 223.596 410.55C216.036 402.27 212 390.3 212 375V276C212 260.7 212 240.5 212 240.5V217.86V195C212 195 281.916 232.44 289.476 240.72C297.036 248.82 300.816 260.52 300.816 275.82V292.02H272.736V273.93C272.736 261.51 267.606 255.3 257.346 255.3C247.086 255.3 241.956 261.51 241.956 273.93V377.34C241.956 389.58 247.086 395.7 257.346 395.7C267.606 395.7 272.736 389.58 272.736 377.34V340.35H257.886V313.35H300.816V375.18C300.816 390.48 297.036 402.27 289.476 410.55C281.916 418.65 270.936 422.7 256.536 422.7Z" fill="white"/>
<path d="M152.566 422.7C138.166 422.7 127.276 418.65 119.896 410.55C112.516 402.27 108.826 390.48 108.826 375.18V364.38H136.906V377.34C136.906 389.58 142.036 395.7 152.296 395.7C157.336 395.7 161.116 394.26 163.636 391.38C166.336 388.32 167.686 383.46 167.686 376.8C167.686 368.88 165.886 361.95 162.286 356.01C158.686 349.89 152.026 342.6 142.306 334.14C130.066 323.34 121.516 313.62 116.656 304.98C111.796 296.16 109.366 286.26 109.366 275.28C109.366 260.34 113.146 248.82 120.706 240.72C128.266 232.44 197 195 197 195V227V233.5V239.5V251.5V276V278V279.741V283.65H168.766V273.93C168.766 267.45 167.506 262.77 164.986 259.89C162.466 256.83 158.776 255.3 153.916 255.3C144.016 255.3 139.066 261.33 139.066 273.39C139.066 280.23 140.866 286.62 144.466 292.56C148.246 298.5 154.996 305.7 164.716 314.16C177.136 324.96 185.686 334.77 190.366 343.59C195.046 352.41 197.386 362.76 197.386 374.64C197.386 390.12 193.516 402 185.776 410.28C178.216 418.56 167.146 422.7 152.566 422.7Z" fill="white"/>
<path d="M51.9197 422.7C37.6997 422.7 26.8097 418.65 19.2497 410.55C11.8697 402.45 8.17969 391.02 8.17969 376.26V274.74C8.17969 259.98 11.8697 248.55 19.2497 240.45C26.8097 232.35 37.6997 228.3 51.9197 228.3C66.1397 228.3 76.9397 232.35 84.3197 240.45C91.8797 248.55 95.6597 259.98 95.6597 274.74V294.72H67.5797V272.85C67.5797 261.15 62.6297 255.3 52.7297 255.3C42.8297 255.3 37.8797 261.15 37.8797 272.85V378.42C37.8797 389.94 42.8297 395.7 52.7297 395.7C62.6297 395.7 67.5797 389.94 67.5797 378.42V349.53H95.6597V376.26C95.6597 391.02 91.8797 402.45 84.3197 410.55C76.9397 418.65 66.1397 422.7 51.9197 422.7Z" fill="white"/>
<defs>
<linearGradient id="paint0_linear_367_25" x1="0" y1="0" x2="408" y2="219" gradientUnits="userSpaceOnUse">
<stop stop-color="#D97706"/>
<stop offset="1" stop-color="#FBBF24"/>
</linearGradient>
</defs>
</svg>
